<?xml version="1.0" encoding="UTF-8" standalone="no"?>
<!-- Created with Inkscape (http://www.inkscape.org/) -->

<svg
   width="70.705452mm"
   height="15.934235mm"
   viewBox="0 0 70.705452 15.934235"
   version="1.1"
   id="svg5"
   xml:space="preserve"
   inkscape:version="1.2 (dc2aedaf03, 2022-05-15)"
   sodipodi:docname="drawing.svg"
   xmlns:inkscape="http://www.inkscape.org/namespaces/inkscape"
   xmlns:sodipodi="http://sodipodi.sourceforge.net/DTD/sodipodi-0.dtd"
   xmlns="http://www.w3.org/2000/svg"
   xmlns:svg="http://www.w3.org/2000/svg"><sodipodi:namedview
     id="namedview7"
     pagecolor="#ffffff"
     bordercolor="#666666"
     borderopacity="1.0"
     inkscape:showpageshadow="2"
     inkscape:pageopacity="0.0"
     inkscape:pagecheckerboard="0"
     inkscape:deskcolor="#d1d1d1"
     inkscape:document-units="mm"
     showgrid="false"
     inkscape:zoom="0.2102413"
     inkscape:cx="-359.11117"
     inkscape:cy="561.25984"
     inkscape:window-width="1366"
     inkscape:window-height="705"
     inkscape:window-x="-8"
     inkscape:window-y="-8"
     inkscape:window-maximized="1"
     inkscape:current-layer="layer1"
     inkscape:lockguides="true" /><defs
     id="defs2" /><g
     inkscape:label="Layer 1"
     inkscape:groupmode="layer"
     id="layer1"
     transform="translate(-98.537959,-222.93092)"><path
       style="fill:none;stroke:#177af0;stroke-width:0.352778"
       d="m 106.44897,223.16203 c 4.34735,-0.41261 3.9329,1.56612 5.30147,4.30219 0.7336,1.46668 1.49158,2.70186 1.10568,4.58611 -0.52935,2.58481 -2.40782,4.10006 -4.99604,5.50753 -1.72269,0.93677 -2.89567,1.47726 -4.92337,0.89091 -2.34788,-0.67892 -2.29676,-3.34123 -3.047083,-4.53383 -0.862682,-1.37121 -1.468825,-2.68316 -1.031381,-4.68683 0.292171,-1.33808 0.887378,-2.06241 1.953084,-2.93899 1.95121,-1.60493 3.91791,-2.9639 5.63764,-3.12709 m 19.05,3.24386 c 0.73113,3.18932 1.22233,5.76386 2.82222,8.11389 2.22779,-2.78137 2.15723,-4.43206 3.52777,-7.76111 m 16.58056,-0.35278 v 9.17222 m -10.58333,-8.81944 c -0.61736,2.98249 -1.30387,5.7109 -2.82223,7.76111 -1.62701,-2.43435 -1.44462,-4.44109 -3.175,-6.70278 m 35.63056,0 v 7.76111 M 139.96285,230.992 c 4.41749,-3.17765 4.76356,1.56333 4.93889,4.58611 m 7.05556,-3.52778 c 0.46637,-0.78306 0.88653,-1.7339 2.12337,-1.99771 1.07209,-0.22867 2.74249,0.35024 2.74249,1.59946 0,1.12448 -1.57727,1.11101 -2.39571,1.09591 -1.19909,-0.022 -1.78365,-0.33133 -2.47015,-0.69766 m 8.46666,3.52778 c 0,-3.13835 0.0392,-4.62816 3.175,-5.64444 m 2.11667,0 c 1.42205,0 1.95827,0 3.52778,0 m -69.14444,3.88055 c 1.25793,-0.96679 2.11726,-2.08252 5.64444,-2.82222 m 38.45278,3.88056 c -1.31763,0.89595 -3.40184,2.13917 -3.89079,-0.0204 -0.50518,-2.23001 2.39113,-2.09603 4.24356,-2.09624 m 7.05556,0 c 1.04634,2.70051 2.55623,4.28558 5.64444,2.11667 m -22.225,-0.35278 v 0.70555"
       id="path290"
       inkscape:export-filename="..\Kuliah\day1\cartoon-logo.svg"
       inkscape:export-xdpi="300"
       inkscape:export-ydpi="300" /></g></svg>
